<svg width="188" height="46" viewBox="0 0 188 46" fill="none" xmlns="http://www.w3.org/2000/svg">
<path d="M0.69562 36V0.719999H7.27162L10.1036 19.008L10.3436 20.88H10.4396L10.6796 19.008L13.5116 0.719999H20.0876V36H15.2876V12.336H14.9996L14.8076 13.824L11.7356 36H9.04762L5.97562 13.824L5.78362 12.336H5.49562V36H0.69562Z" fill="#19672F"/>
<path d="M26.2496 36.384C25.4496 36.384 24.7696 36.136 24.2096 35.64C23.6496 35.144 23.2256 34.504 22.9376 33.72C22.6496 32.92 22.5056 32.096 22.5056 31.248V14.496C22.5056 13.648 22.6416 12.832 22.9136 12.048C23.2016 11.264 23.6256 10.624 24.1856 10.128C24.7456 9.616 25.4336 9.36 26.2496 9.36C26.8576 9.36 27.4976 9.568 28.1696 9.984C28.8416 10.4 29.4816 10.896 30.0896 11.472V9.744H34.9376V36H30.0896V34.272C29.4496 34.832 28.8176 35.328 28.1936 35.76C27.5696 36.176 26.9216 36.384 26.2496 36.384ZM28.5536 31.824C28.9216 31.824 29.2656 31.672 29.5856 31.368C29.9216 31.064 30.0896 30.688 30.0896 30.24V15.504C30.0896 15.12 29.9216 14.76 29.5856 14.424C29.2656 14.088 28.9216 13.92 28.5536 13.92C28.2016 13.92 27.9136 14.072 27.6896 14.376C27.4656 14.664 27.3536 15.04 27.3536 15.504V30.24C27.3536 30.688 27.4656 31.064 27.6896 31.368C27.9136 31.672 28.2016 31.824 28.5536 31.824ZM42.7957 36.36C40.6677 36.36 39.0997 35.696 38.0917 34.368C37.0997 33.04 36.6037 31.192 36.6037 28.824V16.896C36.6037 14.512 37.0997 12.664 38.0917 11.352C39.0997 10.024 40.6677 9.36 42.7957 9.36C44.9237 9.36 46.4917 10.024 47.4997 11.352C48.5237 12.68 49.0357 14.528 49.0357 16.896V18.96H44.1877V16.272C44.1877 15.536 44.0917 14.92 43.8997 14.424C43.7077 13.928 43.3397 13.68 42.7957 13.68C42.2517 13.68 41.8917 13.936 41.7157 14.448C41.5397 14.944 41.4517 15.552 41.4517 16.272V29.448C41.4517 30.168 41.5397 30.784 41.7157 31.296C41.8917 31.792 42.2517 32.04 42.7957 32.04C43.3397 32.04 43.7077 31.792 43.8997 31.296C44.0917 30.8 44.1877 30.184 44.1877 29.448V26.76H49.0357V28.824C49.0357 31.192 48.5237 33.04 47.4997 34.368C46.4917 35.696 44.9237 36.36 42.7957 36.36ZM50.7075 36V0.719999H55.5555V11.544C55.9715 11.112 56.5875 10.64 57.4035 10.128C58.2195 9.616 58.9955 9.36 59.7315 9.36C60.5315 9.36 61.2035 9.592 61.7475 10.056C62.2915 10.52 62.6995 11.144 62.9715 11.928C63.2435 12.696 63.3795 13.552 63.3795 14.496V36H58.5315V15.504C58.5315 15.024 58.4195 14.64 58.1955 14.352C57.9875 14.048 57.7395 13.896 57.4515 13.896C57.1155 13.896 56.7155 14.088 56.2515 14.472C55.7875 14.84 55.5555 15.256 55.5555 15.72V36H50.7075ZM65.5612 36V9.744H70.4092V36H65.5612ZM65.5612 5.568V0.719999H70.4092V5.568H65.5612ZM72.5756 36V9.744H77.4236V11.952C77.9996 11.392 78.6476 10.824 79.3676 10.248C80.0876 9.656 80.7516 9.36 81.3596 9.36C82.1596 9.36 82.8316 9.616 83.3756 10.128C83.9196 10.64 84.3276 11.288 84.5996 12.072C84.8716 12.856 85.0076 13.664 85.0076 14.496V36H80.1596V15.456C80.1596 14.944 80.0716 14.584 79.8956 14.376C79.7196 14.168 79.4236 14.064 79.0076 14.064C78.6556 14.064 78.3516 14.192 78.0956 14.448C77.8556 14.688 77.6316 14.976 77.4236 15.312V36H72.5756ZM92.9081 36.384C90.9721 36.384 89.4441 35.72 88.3241 34.392C87.2201 33.048 86.6681 31.408 86.6681 29.472V16.272C86.6681 14.224 87.2201 12.56 88.3241 11.28C89.4281 10 90.9721 9.36 92.9561 9.36C94.2521 9.36 95.3641 9.656 96.2921 10.248C97.2361 10.84 97.9561 11.648 98.4521 12.672C98.9481 13.68 99.1961 14.832 99.1961 16.128V23.76H91.1801V29.472C91.1801 30.128 91.3241 30.736 91.6121 31.296C91.9161 31.84 92.3641 32.112 92.9561 32.112C93.5801 32.112 94.0201 31.856 94.2761 31.344C94.5481 30.832 94.6841 30.208 94.6841 29.472V26.592H99.1961V29.616C99.1961 31.648 98.6441 33.288 97.5401 34.536C96.4521 35.768 94.9081 36.384 92.9081 36.384ZM91.1801 19.968H94.6841V16.272C94.6841 15.552 94.5561 14.928 94.3001 14.4C94.0601 13.856 93.6121 13.584 92.9561 13.584C92.3481 13.584 91.9001 13.864 91.6121 14.424C91.3241 14.968 91.1801 15.584 91.1801 16.272V19.968ZM121.327 36.384C120.527 36.384 119.847 36.136 119.287 35.64C118.727 35.144 118.303 34.504 118.015 33.72C117.727 32.92 117.583 32.096 117.583 31.248V14.496C117.583 13.648 117.719 12.832 117.991 12.048C118.279 11.264 118.703 10.624 119.263 10.128C119.823 9.616 120.511 9.36 121.327 9.36C121.935 9.36 122.575 9.568 123.247 9.984C123.919 10.4 124.559 10.896 125.167 11.472V9.744H130.015V36H125.167V34.272C124.527 34.832 123.895 35.328 123.271 35.76C122.647 36.176 121.999 36.384 121.327 36.384ZM123.631 31.824C123.999 31.824 124.343 31.672 124.663 31.368C124.999 31.064 125.167 30.688 125.167 30.24V15.504C125.167 15.12 124.999 14.76 124.663 14.424C124.343 14.088 123.999 13.92 123.631 13.92C123.279 13.92 122.991 14.072 122.767 14.376C122.543 14.664 122.431 15.04 122.431 15.504V30.24C122.431 30.688 122.543 31.064 122.767 31.368C122.991 31.672 123.279 31.824 123.631 31.824ZM131.921 36V9.744H136.769V11.952C137.553 11.232 138.265 10.624 138.905 10.128C139.561 9.616 140.193 9.36 140.801 9.36C141.665 9.36 142.361 9.656 142.889 10.248C143.417 10.84 143.809 11.52 144.065 12.288C144.753 11.584 145.465 10.92 146.201 10.296C146.953 9.672 147.713 9.36 148.481 9.36C149.281 9.36 149.953 9.616 150.497 10.128C151.041 10.64 151.449 11.288 151.721 12.072C151.993 12.856 152.129 13.664 152.129 14.496V36H147.569V15.456C147.569 14.944 147.441 14.584 147.185 14.376C146.945 14.168 146.641 14.064 146.273 14.064C145.905 14.064 145.553 14.208 145.217 14.496C144.881 14.768 144.625 15.04 144.449 15.312V36H139.889V15.456C139.889 14.944 139.761 14.584 139.505 14.376C139.265 14.168 138.961 14.064 138.593 14.064C138.225 14.064 137.873 14.208 137.537 14.496C137.201 14.768 136.945 15.04 136.769 15.312V36H131.921ZM154.275 36V9.744H159.123V36H154.275ZM154.275 5.568V0.719999H159.123V5.568H154.275ZM161.289 36V9.744H166.137V11.952C166.713 11.392 167.361 10.824 168.081 10.248C168.801 9.656 169.465 9.36 170.073 9.36C170.873 9.36 171.545 9.616 172.089 10.128C172.633 10.64 173.041 11.288 173.313 12.072C173.585 12.856 173.721 13.664 173.721 14.496V36H168.873V15.456C168.873 14.944 168.785 14.584 168.609 14.376C168.433 14.168 168.137 14.064 167.721 14.064C167.369 14.064 167.065 14.192 166.809 14.448C166.569 14.688 166.345 14.976 166.137 15.312V36H161.289ZM180.062 45.024C179.182 45.024 178.454 44.96 177.878 44.832C177.318 44.704 176.926 44.584 176.702 44.472V40.152C177.054 40.328 177.486 40.464 177.998 40.56C178.526 40.672 179.158 40.728 179.894 40.728C180.934 40.728 181.702 40.488 182.198 40.008C182.694 39.528 182.942 38.768 182.942 37.728V32.904H187.814V37.776C187.814 40 187.094 41.76 185.654 43.056C184.214 44.368 182.35 45.024 180.062 45.024ZM179.126 36.384C178.326 36.384 177.646 36.136 177.086 35.64C176.526 35.144 176.102 34.504 175.814 33.72C175.526 32.92 175.382 32.096 175.382 31.248V14.496C175.382 13.648 175.518 12.832 175.79 12.048C176.078 11.264 176.502 10.624 177.062 10.128C177.622 9.616 178.31 9.36 179.126 9.36C179.734 9.36 180.374 9.568 181.046 9.984C181.718 10.4 182.358 10.896 182.966 11.472V9.744H187.814V36H182.966V34.272C182.326 34.832 181.694 35.328 181.07 35.76C180.446 36.176 179.798 36.384 179.126 36.384ZM181.43 31.824C181.798 31.824 182.142 31.672 182.462 31.368C182.798 31.064 182.966 30.688 182.966 30.24V15.504C182.966 15.12 182.798 14.76 182.462 14.424C182.142 14.088 181.798 13.92 181.43 13.92C181.078 13.92 180.79 14.072 180.566 14.376C180.342 14.664 180.23 15.04 180.23 15.504V30.24C180.23 30.688 180.342 31.064 180.566 31.368C180.79 31.672 181.078 31.824 181.43 31.824Z" fill="#00B031"/>
<path d="M107.442 36.384C106.018 36.384 104.858 36.048 103.962 35.376C103.066 34.704 102.402 33.792 101.97 32.64C101.554 31.488 101.346 30.192 101.346 28.752V7.968C101.346 6.544 101.626 5.256 102.186 4.104C102.746 2.952 103.546 2.04 104.586 1.368C105.626 0.679998 106.85 0.335999 108.258 0.335999C109.33 0.335999 110.29 0.535998 111.138 0.935998C112.002 1.32 112.73 1.864 113.322 2.568C113.93 3.272 114.386 4.088 114.69 5.016C115.01 5.928 115.17 6.912 115.17 7.968V13.392H109.986V7.968C109.986 7.264 109.858 6.656 109.602 6.144C109.346 5.632 108.898 5.376 108.258 5.376C107.634 5.376 107.186 5.648 106.914 6.192C106.658 6.72 106.53 7.312 106.53 7.968V29.184C106.53 29.872 106.666 30.48 106.938 31.008C107.21 31.52 107.65 31.776 108.258 31.776C108.898 31.776 109.346 31.52 109.602 31.008C109.858 30.48 109.986 29.872 109.986 29.184V23.28H107.922V18.432H115.17V36H112.098L111.474 34.08C111.026 34.8 110.45 35.368 109.746 35.784C109.058 36.184 108.29 36.384 107.442 36.384Z" fill="#1A672F"/>
</svg>
